<svg width="20" height="22" viewBox="0 0 20 22" fill="none" xmlns="http://www.w3.org/2000/svg">
<path d="M10 0C11.4281 0 12.7977 0.559482 13.8075 1.55536C14.8173 2.55125 15.3846 3.90195 15.3846 5.31035C15.3846 6.71874 14.8173 8.06944 13.8075 9.06533C12.7977 10.0612 11.4281 10.6207 10 10.6207C8.57191 10.6207 7.20231 10.0612 6.1925 9.06533C5.18269 8.06944 4.61539 6.71874 4.61539 5.31035C4.61539 3.90195 5.18269 2.55125 6.1925 1.55536C7.20231 0.559482 8.57191 0 10 0ZM0 19.3448C0 16.2041 4.47692 13.6552 10 13.6552C15.5231 13.6552 20 16.2041 20 19.3448V22H0V19.3448Z" fill="#0094FF"/>
</svg>
