<svg width="20" height="20" viewBox="0 0 20 20" fill="none" xmlns="http://www.w3.org/2000/svg">
<path d="M14.325 0.1825C14.2079 0.0656638 14.0492 3.51487e-05 13.8838 0L6.11625 0C5.95081 3.51487e-05 5.79213 0.0656638 5.675 0.1825L0.1825 5.675C0.0656638 5.79213 3.51487e-05 5.95081 0 6.11625L0 13.8838C3.51487e-05 14.0492 0.0656638 14.2079 0.1825 14.325L5.675 19.8175C5.79213 19.9343 5.95081 20 6.11625 20H13.8838C14.0492 20 14.2079 19.9343 14.325 19.8175L19.8175 14.325C19.9343 14.2079 20 14.0492 20 13.8838V6.11625C20 5.95081 19.9343 5.79213 19.8175 5.675L14.325 0.1825ZM10 5C10.6688 5 11.1925 5.5775 11.125 6.24375L10.6875 10.6275C10.6728 10.7997 10.594 10.9601 10.4667 11.077C10.3394 11.1939 10.1728 11.2588 10 11.2588C9.82716 11.2588 9.66061 11.1939 9.53331 11.077C9.406 10.9601 9.3272 10.7997 9.3125 10.6275L8.875 6.24375C8.85929 6.08654 8.87668 5.92779 8.92606 5.77771C8.97543 5.62763 9.0557 5.48956 9.16168 5.37239C9.26766 5.25522 9.39701 5.16155 9.5414 5.09741C9.68579 5.03327 9.84201 5.00009 10 5ZM10.0025 12.5C10.334 12.5 10.652 12.6317 10.8864 12.8661C11.1208 13.1005 11.2525 13.4185 11.2525 13.75C11.2525 14.0815 11.1208 14.3995 10.8864 14.6339C10.652 14.8683 10.334 15 10.0025 15C9.67098 15 9.35304 14.8683 9.11862 14.6339C8.8842 14.3995 8.7525 14.0815 8.7525 13.75C8.7525 13.4185 8.8842 13.1005 9.11862 12.8661C9.35304 12.6317 9.67098 12.5 10.0025 12.5Z" fill="#0094FF"/>
</svg>
