<svg width="36" height="36" viewBox="0 0 36 36" fill="none" xmlns="http://www.w3.org/2000/svg">
<path d="M18.1076 4.35733C12.6303 4.35644 7.69181 7.65521 5.59512 12.7153C3.49843 17.7754 4.65646 23.6003 8.52919 27.4737C12.4019 31.3471 18.2266 32.506 23.2871 30.4102C28.3475 28.3143 31.6471 23.3763 31.6471 17.899C31.6471 10.421 25.5856 4.35854 18.1076 4.35733ZM18.1076 30.6593C11.0603 30.6593 5.34735 24.9463 5.34735 17.899C5.34735 10.8518 11.0603 5.13879 18.1076 5.13879C25.1549 5.13879 30.8678 10.8518 30.8678 17.899C30.8594 24.9428 25.1514 30.6508 18.1076 30.6593Z" fill="#26A9E0"/>
<path d="M5.45709 24.4164V30.7317H11.6342C8.96235 29.3284 6.8009 27.1186 5.45709 24.4164Z" fill="#26A9E0"/>
<path d="M11.4542 5.3078H5.44171V11.5485C6.75434 8.89804 8.8544 6.71825 11.4542 5.3078Z" fill="#26A9E0"/>
<path d="M30.8788 11.3488V5.32538H24.9783C27.5048 6.69588 29.5606 8.79459 30.8788 11.3488Z" fill="#26A9E0"/>
<path d="M24.829 30.7317H30.8942V24.6315C29.5442 27.2375 27.4273 29.3667 24.829 30.7317Z" fill="#26A9E0"/>
<path d="M4.62293 13.5944L0.195374 18.022L4.56147 22.3902C3.65907 19.5251 3.68057 16.4488 4.62293 13.5966V13.5944Z" fill="#26A9E0"/>
<path d="M13.8161 31.6449L18.169 36L22.5593 31.6097C19.7185 32.5395 16.6577 32.5556 13.8073 31.6558L13.8161 31.6449Z" fill="#26A9E0"/>
<path d="M22.3639 4.1861L18.1778 0L13.8491 4.32878C16.6072 3.41903 19.5768 3.36927 22.3639 4.1861Z" fill="#26A9E0"/>
<path d="M31.8293 22.3002L36.1295 18L31.9588 13.8293C32.772 16.6012 32.7269 19.5544 31.8293 22.3002Z" fill="#26A9E0"/>
<path d="M18.1098 5.88513C11.4747 5.88392 6.0949 11.2617 6.09369 17.8968C6.09248 24.5319 11.4703 29.9117 18.1054 29.9129C24.7405 29.9142 30.1203 24.5363 30.1215 17.9012C30.1154 11.2691 24.7419 5.8936 18.1098 5.88513ZM27.2459 22.5549L22.2564 20.9129L25.3603 25.1495L21.1237 22.0478L22.7634 27.0373L19.6903 22.7744L19.7122 28.0273L18.1076 23.0268L16.503 28.0273L16.5227 22.7744L13.4495 27.0373L15.0915 22.0478L10.8549 25.1495L13.9588 20.9129L8.9693 22.5549L13.23 19.4817L7.9771 19.4993L12.9776 17.8946L7.9793 16.2944L13.2322 16.3164L8.97149 13.2432L13.961 14.8873L10.8549 10.6485L15.0959 13.7503L13.4517 8.75855L16.5249 13.0215L16.5052 7.77074L18.1098 12.7712L19.7166 7.77074L19.6947 13.0215L22.7678 8.75855L21.1237 13.7503L25.3603 10.6485L22.2564 14.8851L27.2459 13.241L22.9852 16.3142L28.2381 16.2922L23.2376 17.8968L28.2381 19.5015L22.9852 19.4839L27.2459 22.5549Z" fill="#26A9E0"/>
</svg>
